# xmcd
#
# Track frame offsets: 
#        150
#        13282
#        25436
#        38086
#        52502
#        65694
#        80038
#        93161
#        109438
#        121447
#        135810
#        147714
#        162429
#        176959
#        190951
#        202624
#        216615
#        228196
#        241737
#        256277
#
# Disc length: 3566 seconds
#
# Revision: 2
# Processed by: cddbd v1.5.2PL0 Copyright (c) Steve Scherf et al.
# Submitted via: ExactAudioCopy v1.0b6
#
DISCID=1e0dec14
DTITLE=John Lee Hooker - Old Bonus Tracks
DYEAR=2015
DGENRE=Blues
TTITLE0=I Tried Hard (1952)
TTITLE1=Rock 'n' Roll (1950)
TTITLE2=Huckle Up Baby (1950)
TTITLE3=Henry's Swing Club (1948)
TTITLE4=Heart Trouble Blues (1949)
TTITLE5=Who's Been Jiving You (1948)
TTITLE6=No Friend Around (1950)
TTITLE7=Low Down Midnite Boogie (1949)
TTITLE8=I'm Ready (1954)
TTITLE9=Wayne Country Ramblin' Blues (1950)
TTITLE10=Howlin' Wolf (1950)
TTITLE11=Playing The Races (1950)
TTITLE12=Woman In My Life (1951)
TTITLE13=Taxi Driver (1954)
TTITLE14=Queen Bee (1951)
TTITLE15=Alberta (1950)
TTITLE16=Twister Blues (1950)
TTITLE17=Too Much Boogie (1953)
TTITLE18=You Receive Me (1954)
TTITLE19=Jump Me One More Time (1954)
EXTD=
EXTT0=
EXTT1=
EXTT2=
EXTT3=
EXTT4=
EXTT5=
EXTT6=
EXTT7=
EXTT8=
EXTT9=
EXTT10=
EXTT11=
EXTT12=
EXTT13=
EXTT14=
EXTT15=
EXTT16=
EXTT17=
EXTT18=
EXTT19=
PLAYORDER=
